<svg xmlns="http://www.w3.org/2000/svg" viewBox="0 0 214 214">
  <path fill="currentColor" d="M95.0617+47.5337C95.0617+73.7801+73.7801+95.0617+47.5337+95.0617C21.2816+95.0617+0+73.7801+0+47.5337C0+21.2816+21.2816+0+47.5337+0C73.7801+0+95.0617+21.2816+95.0617+47.5337"/>
  <path fill="currentColor" d="M214.01+156.172C214.01+188.113+188.117+214+156.181+214C124.24+214+98.3471+188.113+98.3471+156.172C98.3471+124.23+124.24+98.3501+156.181+98.3501C188.117+98.3501+214.01+124.23+214.01+156.172"/>
  <path fill="currentColor" d="M193.399+47.5337C193.399+68.0905+176.734+84.7497+156.177+84.7497C135.626+84.7497+118.955+68.0905+118.955+47.5337C118.955+26.9768+135.626+10.3119+156.177+10.3119C176.734+10.3119+193.399+26.9768+193.399+47.5337"/>
  <path fill="currentColor" d="M74.4453+156.172C74.4453+171.033+62.3914+183.081+47.5298+183.081C32.6682+183.081+20.62+171.033+20.62+156.172C20.62+141.299+32.6682+129.256+47.5298+129.256C62.3914+129.256+74.4453+141.299+74.4453+156.172"/>
</svg>
