<svg xmlns="http://www.w3.org/2000/svg" viewBox="0 0 370 370">
  <path fill="currentColor" d="M295.04,164.386l30.431-29.663c4.088-3.985,5.56-9.946,3.795-15.376c-1.765-5.431-6.458-9.389-12.108-10.209L221.314,95.21 L178.452,8.361C175.924,3.241,170.71,0,165,0c-5.71,0-10.924,3.241-13.451,8.361L108.687,95.21l-95.844,13.928 c-5.65,0.82-10.345,4.778-12.108,10.209c-1.765,5.43-0.293,11.391,3.796,15.376l69.353,67.602L57.511,297.78 c-0.965,5.628,1.349,11.315,5.968,14.672c2.613,1.898,5.707,2.864,8.818,2.864c2.387,0,4.784-0.569,6.979-1.723l80.904-42.533 C163.33,326.149,209.137,370,265,370c57.897,0,105-47.103,105-105C370,217.539,338.344,177.338,295.04,164.386z M92.217,272.897 l12.567-73.272c0.835-4.866-0.778-9.831-4.314-13.277l-53.235-51.892l73.57-10.691c4.886-0.71,9.108-3.778,11.294-8.205L165,48.893 l32.901,66.666c2.186,4.427,6.408,7.495,11.294,8.205l73.57,10.691l-26.59,25.919c-44.166,3.692-80.648,34.835-92.283,76.271 c-2.023,0.149-4.024,0.685-5.873,1.656L92.217,272.897z M265,340c-41.355,0-75-33.645-75-75s33.645-75,75-75s75,33.645,75,75 S306.356,340,265,340z"/>
  <path fill="currentColor" d="M283.05,226.499c-6.641,0-12.9,2.56-18.054,7.23c-5.152-4.671-11.41-7.23-18.049-7.23 c-12.831,0-24.155,9.263-27.538,22.525c-1.749,6.862-2.132,17.758,5.981,30.697c7.094,11.313,19.21,21.696,36.012,30.861 c1.119,0.61,2.355,0.916,3.592,0.916c1.235,0,2.472-0.305,3.591-0.915c16.806-9.166,28.926-19.549,36.022-30.861 c8.117-12.94,7.736-23.835,5.986-30.696C307.212,235.763,295.886,226.499,283.05,226.499z"/>
</svg>
