<svg xmlns="http://www.w3.org/2000/svg" viewBox="0 0 512 512">
  <path fill="currentColor" d="M314.776+125.388L216.816+125.388C209.604+125.388+203.755+131.237+203.755+138.449L203.755+242.939L177.633+242.939C170.42+242.939+164.571+248.788+164.571+256C164.571+263.212+170.42+269.061+177.633+269.061L203.755+269.061L203.755+321.306L177.633+321.306C170.42+321.306+164.571+327.155+164.571+334.367C164.571+341.58+170.42+347.429+177.633+347.429L203.755+347.429L203.755+412.735C203.755+419.947+209.604+425.796+216.816+425.796C224.029+425.796+229.878+419.947+229.878+412.735L229.878+347.429L334.367+347.429C341.58+347.429+347.429+341.58+347.429+334.367C347.429+327.155+341.58+321.306+334.367+321.306L229.878+321.306L229.878+269.061L314.776+269.061C361.642+269.061+386.162+232.908+386.162+197.196C386.162+161.511+361.642+125.388+314.776+125.388ZM314.776+242.939L229.878+242.939L229.878+151.51L314.776+151.51C328.944+151.51+340.685+156.328+348.731+165.448C355.917+173.591+360.039+185.164+360.039+197.196C360.039+219.964+346.043+242.939+314.776+242.939Z"/>
  <path fill="currentColor" d="M256-1.81198e-05C114.841-1.81198e-05-4.97936e-07+114.841-4.97936e-07+256C-4.97936e-07+397.159+114.841+512+256+512C397.159+512+512+397.159+512+256C512+114.841+397.159-1.81198e-05+256-1.81198e-05ZM256+485.878C129.245+485.878+26.1224+382.755+26.1224+256C26.1224+129.245+129.245+26.1224+256+26.1224C382.755+26.1224+485.878+129.245+485.878+256C485.878+382.755+382.755+485.878+256+485.878Z"/>
</svg>
